<svg xmlns="http://www.w3.org/2000/svg" width="650" height="620">
    <g transform="translate(80,400)">
        <polyline fill="none" stroke="#32281b" stroke-width="1" points="0,0 288,0 298,15 302,-15 312,0 580,0"/>
        <line x1="0" x2="0" y1="0" y2="-380" stroke="#32281b" stroke-width="1"/>
        <text x="-50" y="-190" text-anchor="middle" fill="#32281b" style="writing-mode:tb" transform="rotate(180 -50 -190)">Número ocorrências</text>
        <text x="330" text-anchor="middle" y="70" fill="#32281b">Folio Ms. A</text>
        <line x1="-3" x2="3" y1="-40" y2="-40" stroke="#32281b" stroke-width="1"/>
        <line x1="-3" x2="3" y1="-80" y2="-80" stroke="#32281b" stroke-width="1"/>
        <line x1="-3" x2="3" y1="-120" y2="-120" stroke="#32281b" stroke-width="1"/>
        <line x1="-3" x2="3" y1="-160" y2="-160" stroke="#32281b" stroke-width="1"/>
        <line x1="-3" x2="3" y1="-200" y2="-200" stroke="#32281b" stroke-width="1"/>
        <line x1="-3" x2="3" y1="-240" y2="-240" stroke="#32281b" stroke-width="1"/>
        <line x1="-3" x2="3" y1="-280" y2="-280" stroke="#32281b" stroke-width="1"/>
        <line x1="-3" x2="3" y1="-320" y2="-320" stroke="#32281b" stroke-width="1"/>
        <line x1="-3" x2="3" y1="-360" y2="-360" stroke="#32281b" stroke-width="1"/>
        <line x1="-2" x2="2" y1="-20" y2="-20" stroke="#32281b" stroke-width="1"/>
        <line x1="-2" x2="2" y1="-60" y2="-60" stroke="#32281b" stroke-width="1"/>
        <line x1="-2" x2="2" y1="-100" y2="-100" stroke="#32281b" stroke-width="1"/>
        <line x1="-2" x2="2" y1="-140" y2="-140" stroke="#32281b" stroke-width="1"/>
        <line x1="-2" x2="2" y1="-180" y2="-180" stroke="#32281b" stroke-width="1"/>
        <line x1="-2" x2="2" y1="-220" y2="-220" stroke="#32281b" stroke-width="1"/>
        <line x1="-2" x2="2" y1="-260" y2="-260" stroke="#32281b" stroke-width="1"/>
        <line x1="-2" x2="2" y1="-300" y2="-300" stroke="#32281b" stroke-width="1"/>
        <line x1="-2" x2="2" y1="-340" y2="-340" stroke="#32281b" stroke-width="1"/>
        <text text-anchor="end" font-size="11" fill="#32281b" x="-9" y="-36">20</text>
        <text text-anchor="end" font-size="11" fill="#32281b" x="-9" y="-76">40</text>
        <text text-anchor="end" font-size="11" fill="#32281b" x="-9" y="-116">60</text>
        <text text-anchor="end" font-size="11" fill="#32281b" x="-9" y="-156">80</text>
        <text text-anchor="end" font-size="11" fill="#32281b" x="-9" y="-196">100</text>
        <text text-anchor="end" font-size="11" fill="#32281b" x="-9" y="-236">120</text>
        <text text-anchor="end" font-size="11" fill="#32281b" x="-9" y="-276">140</text>
        <text text-anchor="end" font-size="11" fill="#32281b" x="-9" y="-316">160</text>
        <text text-anchor="end" font-size="11" fill="#32281b" x="-9" y="-356">180</text>
        <line stroke="#32281b" stroke-width="1" y1="-3" y2="3" x1="40" x2="40"/>
        <line stroke="#32281b" stroke-width="1" y1="-3" y2="3" x1="80" x2="80"/>
        <line stroke="#32281b" stroke-width="1" y1="-3" y2="3" x1="120" x2="120"/>
        <line stroke="#32281b" stroke-width="1" y1="-3" y2="3" x1="160" x2="160"/>
        <line stroke="#32281b" stroke-width="1" y1="-3" y2="3" x1="200" x2="200"/>
        <line stroke="#32281b" stroke-width="1" y1="-3" y2="3" x1="240" x2="240"/>
        <line stroke="#32281b" stroke-width="1" y1="-3" y2="3" x1="280" x2="280"/>
        <line stroke="#32281b" stroke-width="1" y1="-3" y2="3" x1="320" x2="320"/>
        <line stroke="#32281b" stroke-width="1" y1="-3" y2="3" x1="360" x2="360"/>
        <line stroke="#32281b" stroke-width="1" y1="-3" y2="3" x1="400" x2="400"/>
        <line stroke="#32281b" stroke-width="1" y1="-3" y2="3" x1="440" x2="440"/>
        <line stroke="#32281b" stroke-width="1" y1="-3" y2="3" x1="480" x2="480"/>
        <line stroke="#32281b" stroke-width="1" y1="-3" y2="3" x1="520" x2="520"/>
        <line stroke="#32281b" stroke-width="1" y1="-3" y2="3" x1="560" x2="560"/>
        <text text-anchor="middle" fill="#32281b" font-size="11" y="20" x="40">1</text>
        <text text-anchor="middle" fill="#32281b" font-size="11" y="20" x="80">5</text>
        <text text-anchor="middle" fill="#32281b" font-size="11" y="20" x="120">10</text>
        <text text-anchor="middle" fill="#32281b" font-size="11" y="20" x="160">15</text>
        <text text-anchor="middle" fill="#32281b" font-size="11" y="20" x="200">20</text>
        <text text-anchor="middle" fill="#32281b" font-size="11" y="20" x="240">25</text>
        <text text-anchor="middle" fill="#32281b" font-size="11" y="20" x="280">30</text>
        <text text-anchor="middle" fill="#32281b" font-size="11" y="20" x="320">55</text>
        <text text-anchor="middle" fill="#32281b" font-size="11" y="20" x="360">60</text>
        <text text-anchor="middle" fill="#32281b" font-size="11" y="20" x="400">65</text>
        <text text-anchor="middle" fill="#32281b" font-size="11" y="20" x="440">70</text>
        <text text-anchor="middle" fill="#32281b" font-size="11" y="20" x="480">75</text>
        <text text-anchor="middle" fill="#32281b" font-size="11" y="20" x="520">80</text>
        <text text-anchor="middle" fill="#32281b" font-size="11" y="20" x="560">85</text>
        <rect height="22" width="22" x="100" y="105" fill="#11894A" stroke-width=".5" stroke="#32281b"/>
        <text fill="#32281b" font-size="11" x="125" y="120">Variantes de língua</text>
        <rect height="22" width="22" x="325" y="105" fill="#2b3966" stroke-width=".5" stroke="#32281b"/>
        <text fill="#32281b" font-size="11" x="350" y="120">Número de fenómenos únicos</text>
        <circle r="3.5" cx="40" cy="-70" fill="#11894A"/>
        <circle r="3.5" cx="40" cy="-48" fill="#2B3966"/>
        <circle r="3.5" cx="80" cy="-272" fill="#11894A"/>
        <circle r="3.5" cx="80" cy="-140" fill="#2B3966"/>
        <circle r="3.5" cx="120" cy="-236" fill="#11894A"/>
        <circle r="3.5" cx="120" cy="-122" fill="#2B3966"/>
        <circle r="3.5" cx="160" cy="-226" fill="#11894A"/>
        <circle r="3.5" cx="160" cy="-108" fill="#2B3966"/>
        <circle r="3.5" cx="200" cy="-202" fill="#11894A"/>
        <circle r="3.5" cx="200" cy="-84" fill="#2B3966"/>
        <circle r="3.5" cx="240" cy="-302" fill="#11894A"/>
        <circle r="3.5" cx="240" cy="-146" fill="#2B3966"/>
        <circle r="3.5" cx="280" cy="-192" fill="#11894A"/>
        <circle r="3.5" cx="280" cy="-88" fill="#2B3966"/>
        <circle r="3.5" cx="320" cy="-160" fill="#11894A"/>
        <circle r="3.5" cx="320" cy="-76" fill="#2B3966"/>
        <circle r="3.5" cx="360" cy="-214" fill="#11894A"/>
        <circle r="3.5" cx="360" cy="-100" fill="#2B3966"/>
        <circle r="3.5" cx="400" cy="-162" fill="#11894A"/>
        <circle r="3.5" cx="400" cy="-90" fill="#2B3966"/>
        <circle r="3.5" cx="440" cy="-160" fill="#11894A"/>
        <circle r="3.5" cx="440" cy="-86" fill="#2B3966"/>
        <circle r="3.5" cx="480" cy="-138" fill="#11894A"/>
        <circle r="3.5" cx="480" cy="-64" fill="#2B3966"/>
        <circle r="3.5" cx="520" cy="-74" fill="#11894A"/>
        <circle r="3.5" cx="520" cy="-42" fill="#2B3966"/>
        <circle r="3.5" cx="560" cy="-162" fill="#11894A"/>
        <circle r="3.5" cx="560" cy="-66" fill="#2B3966"/>
        <polyline fill="none" opacity="0.9" stroke="#11894A" stroke-width="3" points="40,-70 80,-272 120,-236 160,-226 200,-202 240,-302 280,-192 320,-160 360,-214 400,-162 440,-160 480,-138 520,-74 560,-162"/>
        <polyline fill="none" stroke="#2B3966" opacity="0.9" stroke-width="3" points="40,-48 80,-140 120,-122 160,-108 200,-84 240,-146 280,-88 320,-76 360,-100 400,-90 440,-86 480,-64 520,-42 560,-66"/>
    </g>
</svg>