<svg xmlns="http://www.w3.org/2000/svg" width="820" height="720">
    <g transform="translate(440,350)">
        <line x1="-320" y1="0" x2="320" y2="0" stroke="#32281b" stroke-width="1"/>
        <line x1="0" y1="-320" x2="0" y2="320" stroke="#32281b" stroke-width="1"/>
        <polyline points="0,320 -320,0 0,-320 320,0 0,320" stroke-dasharray="2,2" stroke="#32281b" stroke-width="1" fill="none"/>
        <polyline points="0,280 -280,0 0,-280 280,0 0,280" stroke-dasharray="2,2" stroke="#32281b" stroke-width="1" fill="none"/>
        <polyline points="0,40 -40,0 0,-40 40,0 0,40" stroke-dasharray="2,2" stroke="#32281b" stroke-width="1" fill="none"/>
        <polyline points="0,80 -80,0 0,-80 80,0 0,80" stroke-dasharray="2,2" stroke="#32281b" stroke-width="1" fill="none"/>
        <polyline points="0,120 -120,0 0,-120 120,0 0,120" stroke-dasharray="2,2" stroke="#32281b" stroke-width="1" fill="none"/>
        <polyline points="0,160 -160,0 0,-160 160,0 0,160" stroke-dasharray="2,2" stroke="#32281b" stroke-width="1" fill="none"/>
        <polyline points="0,200 -200,0 0,-200 200,0 0,200" stroke-dasharray="2,2" stroke="#32281b" stroke-width="1" fill="none"/>
        <polyline points="0,240 -240,0 0,-240 240,0 0,240" stroke-dasharray="2,2" stroke="#32281b" stroke-width="1" fill="none"/>
        <text font-size="11" fill="#32281b" x="5" y="-5" text-anchor="start">0</text>
        <text font-size="11" fill="#32281b" x="5" y="45" text-anchor="start">10</text>
        <text font-size="11" fill="#32281b" x="5" y="-80" text-anchor="start">20</text>
        <text font-size="11" fill="#32281b" x="5" y="-160" text-anchor="start">40</text>
        <text font-size="11" fill="#32281b" x="5" y="-240" text-anchor="start">60</text>
        <text font-size="11" fill="#32281b" x="5" y="-320" text-anchor="start">80</text>
        <text font-size="11" fill="#32281b" x="5" y="125" text-anchor="start">30</text>
        <text font-size="11" fill="#32281b" x="5" y="205" text-anchor="start">50</text>
        <text font-size="11" fill="#32281b" x="5" y="285" text-anchor="start">70</text>
        <text font-size="11" fill="#32281b" x="-45" y="-5" text-anchor="middle">10</text>
        <text font-size="11" fill="#32281b" x="-125" y="-5" text-anchor="middle">30</text>
        <text font-size="11" fill="#32281b" x="-205" y="-5" text-anchor="middle">50</text>
        <text font-size="11" fill="#32281b" x="-285" y="-5" text-anchor="middle">70</text>
        <text font-size="11" fill="#32281b" x="80" y="-5" text-anchor="start">20</text>
        <text font-size="11" fill="#32281b" x="160" y="-5" text-anchor="start">40</text>
        <text font-size="11" fill="#32281b" x="240" y="-5" text-anchor="start">60</text>
        <text font-size="11" fill="#32281b" x="320" y="-5" text-anchor="start">80</text>
        <text x="25" y="-307">Variantes de lingua</text>
        <text x="-300" y="-30" text-anchor="end">Erros de copia</text>
        <text y="17" x="323">Outras</text>
        <text x="-32" text-anchor="end" y="310">Diverxentes</text>
    </g>
    <g transform="translate(440,350)" class="per2">
        <polyline stroke="#2B3966" fill="none" stroke-width="2" points="0,-141.76582929337448 -95.78375201997943,0 0,51.35889525488468 110.59203760834436,0 0,-141.76582929337448"/>
        <polyline stroke="none" fill="#2B3966" opacity=".4" points="0,-141.76582929337448 -95.78375201997943,0 0,51.35889525488468 110.59203760834436,0 0,-141.76582929337448"/>
        <circle fill="#2B3966" r="3.5" cy="-141.76582929337448" cx="0"/>
        <circle fill="#2B3966" r="3.5" cy="51.35889525488468" cx="0"/>
        <circle fill="#2B3966" r="3.5" cx="-95.78375201997943" cy="0"/>
        <circle fill="#2B3966" r="3.5" cx="110.59203760834436" cy="0"/>
    </g>
    <g transform="translate(440,350)" class="per3">
        <polyline stroke="#BD6D03" fill="none" stroke-width="2" points="0,-130.4202332743277 -83.08639879725503,0 0,37.1008026382793 164.45597613909163,0 0,-130.4202332743277"/>
        <polyline stroke="none" fill="#BD6D03" opacity=".4" points="0,-130.4202332743277 -83.08639879725503,0 0,37.1008026382793 164.45597613909163,0 0,-130.4202332743277"/>
        <circle fill="#BD6D03" r="3.5" cy="-130.4202332743277" cx="0"/>
        <circle fill="#BD6D03" r="3.5" cy="37.1008026382793" cx="0"/>
        <circle fill="#BD6D03" r="3.5" cx="-83.08639879725503" cy="0"/>
        <circle fill="#BD6D03" r="3.5" cx="164.45597613909163" cy="0"/>
    </g>
    <g id="esc1" transform="translate(440,350)" class="VaFdezSen">
        <polyline stroke="#B3A8CC" fill="none" stroke-width="2" points="0,-171.64973391388486 -133.52685050798257,0 0,50.89501693275278 43.92839864537978,0 0,-171.64973391388486"/>
        <polyline stroke="none" fill="#B3A8CC" opacity=".4" points="0,-171.64973391388486 -133.52685050798257,0 0,50.89501693275278 43.92839864537978,0 0,-171.64973391388486"/>
        <circle fill="#B3A8CC" r="3.5" cy="-171.64973391388486" cx="0"/>
        <circle fill="#B3A8CC" r="3.5" cy="50.89501693275278" cx="0"/>
        <circle fill="#B3A8CC" r="3.5" cx="-133.52685050798257" cy="0"/>
        <circle fill="#B3A8CC" r="3.5" cx="43.92839864537978" cy="0"/>
    </g>
    <g id="esc2" transform="translate(440,350)" class="JSrzSom">
        <polyline stroke="#CF4205" fill="none" stroke-width="2" points="0,-139.54599761051375 -103.54440461967344,0 0,66.18876941457587 90.40223018717643,0 0,-139.54599761051375"/>
        <polyline stroke="none" fill="#CF4205" opacity=".4" points="0,-139.54599761051375 -103.54440461967344,0 0,66.18876941457587 90.40223018717643,0 0,-139.54599761051375"/>
        <circle fill="#CF4205" r="3.5" cy="-139.54599761051375" cx="0"/>
        <circle fill="#CF4205" r="3.5" cy="66.18876941457587" cx="0"/>
        <circle fill="#CF4205" r="3.5" cx="-103.54440461967344" cy="0"/>
        <circle fill="#CF4205" r="3.5" cx="90.40223018717643" cy="0"/>
    </g>
    <g id="esc3" transform="translate(440,350)" class="PaySrzTav">
        <polyline stroke="#6C659D" fill="none" stroke-width="2" points="0,-86.80351906158357 -197.0674486803519,0 0,110.26392961876833 5.865102639296188,0 0,-86.80351906158357"/>
        <polyline stroke="none" fill="#6C659D" opacity=".4" points="0,-86.80351906158357 -197.0674486803519,0 0,110.26392961876833 5.865102639296188,0 0,-86.80351906158357"/>
        <circle fill="#6C659D" r="3.5" cy="-86.80351906158357" cx="0"/>
        <circle fill="#6C659D" r="3.5" cy="110.26392961876833" cx="0"/>
        <circle fill="#6C659D" r="3.5" cx="-197.0674486803519" cy="0"/>
        <circle fill="#6C659D" r="3.5" cx="5.865102639296188" cy="0"/>
    </g>
    <g id="esc4" transform="translate(440,350)" class="MartSrz">
        <polyline stroke="#009CA2" fill="none" stroke-width="2" points="0,-167.19530740821205 -126.52617857918749,0 0,75.34216815120574 40.40842928524875,0 0,-167.19530740821205"/>
        <polyline stroke="none" fill="#009CA2" opacity=".4" points="0,-167.19530740821205 -126.52617857918749,0 0,75.34216815120574 40.40842928524875,0 0,-167.19530740821205"/>
        <circle fill="#009CA2" r="3.5" cy="-167.19530740821205" cx="0"/>
        <circle fill="#009CA2" r="3.5" cy="75.34216815120574" cx="0"/>
        <circle fill="#009CA2" r="3.5" cx="-126.52617857918749" cy="0"/>
        <circle fill="#009CA2" r="3.5" cx="40.40842928524875" cy="0"/>
    </g>
    <g id="esc5" transform="translate(440,350)" class="AyCarp">
        <polyline stroke="#BC9650" fill="none" stroke-width="2" points="0,-326.34271099744245 -24.55242966751918,0 0,2.0460358056265986 47.05882352941177,0 0,-326.34271099744245"/>
        <polyline stroke="none" fill="#BC9650" opacity=".4" points="0,-326.34271099744245 -24.55242966751918,0 0,2.0460358056265986 47.05882352941177,0 0,-326.34271099744245"/>
        <circle fill="#BC9650" r="3.5" cy="-326.34271099744245" cx="0"/>
        <circle fill="#BC9650" r="3.5" cy="2.0460358056265986" cx="0"/>
        <circle fill="#BC9650" r="3.5" cx="-24.55242966751918" cy="0"/>
        <circle fill="#BC9650" r="3.5" cx="47.05882352941177" cy="0"/>
    </g>
    <g id="esc6" transform="translate(440,350)" class="NuFdzTor">
        <polyline stroke="#233310" fill="none" stroke-width="2" points="0,-183.00901756051258 -71.19126720455624,0 0,12.719506407214048 133.83958234456574,0 0,-183.00901756051258"/>
        <polyline stroke="none" fill="#233310" opacity=".4" points="0,-183.00901756051258 -71.19126720455624,0 0,12.719506407214048 133.83958234456574,0 0,-183.00901756051258"/>
        <circle fill="#233310" r="3.5" cy="-183.00901756051258" cx="0"/>
        <circle fill="#233310" r="3.5" cy="12.719506407214048" cx="0"/>
        <circle fill="#233310" r="3.5" cx="-71.19126720455624" cy="0"/>
        <circle fill="#233310" r="3.5" cx="133.83958234456574" cy="0"/>
    </g>
    <g id="esc7" transform="translate(440,350)" class="PGarBu">
        <polyline stroke="#FFC938" fill="none" stroke-width="2" points="0,-267.16383127476115 -52.66837567000699,0 0,27.872290841295737 55.371708226520624,0 0,-267.16383127476115"/>
        <polyline stroke="none" fill="#FFC938" opacity=".4" points="0,-267.16383127476115 -52.66837567000699,0 0,27.872290841295737 55.371708226520624,0 0,-267.16383127476115"/>
        <circle fill="#FFC938" r="3.5" cy="-267.16383127476115" cx="0"/>
        <circle fill="#FFC938" r="3.5" cy="27.872290841295737" cx="0"/>
        <circle fill="#FFC938" r="3.5" cx="-52.66837567000699" cy="0"/>
        <circle fill="#FFC938" r="3.5" cx="55.371708226520624" cy="0"/>
    </g>
    <g id="esc8" transform="translate(440,350)" class="JNzCam">
        <polyline stroke="#5C647F" fill="none" stroke-width="2" points="0,-85.95943837753511 -45.3978159126365,0 0,4.6801872074882995 263.9625585023401,0 0,-85.95943837753511"/>
        <polyline stroke="none" fill="#5C647F" opacity=".4" points="0,-85.95943837753511 -45.3978159126365,0 0,4.6801872074882995 263.9625585023401,0 0,-85.95943837753511"/>
        <circle fill="#5C647F" r="3.5" cy="-85.95943837753511" cx="0"/>
        <circle fill="#5C647F" r="3.5" cy="4.6801872074882995" cx="0"/>
        <circle fill="#5C647F" r="3.5" cx="-45.3978159126365" cy="0"/>
        <circle fill="#5C647F" r="3.5" cx="263.9625585023401" cy="0"/>
    </g>
    <g id="esc9" transform="translate(440,350)" class="FerGarEsg">
        <polyline stroke="#22461E" fill="none" stroke-width="2" points="0,-120.26751962779878 -60.715324222157605,0 0,8.607153242221576 208.8979354463507,0 0,-120.26751962779878"/>
        <polyline stroke="none" fill="#22461E" opacity=".4" points="0,-120.26751962779878 -60.715324222157605,0 0,8.607153242221576 208.8979354463507,0 0,-120.26751962779878"/>
        <circle fill="#22461E" r="3.5" cy="-120.26751962779878" cx="0"/>
        <circle fill="#22461E" r="3.5" cy="8.607153242221576" cx="0"/>
        <circle fill="#22461E" r="3.5" cx="-60.715324222157605" cy="0"/>
        <circle fill="#22461E" r="3.5" cx="208.8979354463507" cy="0"/>
    </g>
    <g id="esc10" transform="translate(440,350)" class="RoyQuey">
        <polyline stroke="#EDDF81" fill="none" stroke-width="2" points="0,-96.91096305269534 -65.17262265293762,0 0,19.13991520290733 218.77649909145973,0 0,-96.91096305269534"/>
        <polyline stroke="none" fill="#EDDF81" opacity=".4" points="0,-96.91096305269534 -65.17262265293762,0 0,19.13991520290733 218.77649909145973,0 0,-96.91096305269534"/>
        <circle fill="#EDDF81" r="3.5" cy="-96.91096305269534" cx="0"/>
        <circle fill="#EDDF81" r="3.5" cy="19.13991520290733" cx="0"/>
        <circle fill="#EDDF81" r="3.5" cx="-65.17262265293762" cy="0"/>
        <circle fill="#EDDF81" r="3.5" cx="218.77649909145973" cy="0"/>
    </g>
    <g id="esc11" transform="translate(440,350)" class="VasGil">
        <polyline stroke="#6A643A" fill="none" stroke-width="2" points="0,-33.333333333333336 -51.19047619047619,0 0,7.142857142857143 308.3333333333333,0 0,-33.333333333333336"/>
        <polyline stroke="none" fill="#6A643A" opacity=".4" points="0,-33.333333333333336 -51.19047619047619,0 0,7.142857142857143 308.3333333333333,0 0,-33.333333333333336"/>
        <circle fill="#6A643A" r="3.5" cy="-33.333333333333336" cx="0"/>
        <circle fill="#6A643A" r="3.5" cy="7.142857142857143" cx="0"/>
        <circle fill="#6A643A" r="3.5" cx="-51.19047619047619" cy="0"/>
        <circle fill="#6A643A" r="3.5" cx="308.3333333333333" cy="0"/>
    </g>
    <g id="esc12" transform="translate(440,350)" class="JSrzCoe">
        <polyline stroke="#B0E9ED" fill="none" stroke-width="2" points="0,-128.7128712871287 -98.67986798679868,0 0,8.58085808580858 161.3861386138614,0 0,-128.7128712871287"/>
        <polyline stroke="none" fill="#B0E9ED" opacity=".4" points="0,-128.7128712871287 -98.67986798679868,0 0,8.58085808580858 161.3861386138614,0 0,-128.7128712871287"/>
        <circle fill="#B0E9ED" r="3.5" cy="-128.7128712871287" cx="0"/>
        <circle fill="#B0E9ED" r="3.5" cy="8.58085808580858" cx="0"/>
        <circle fill="#B0E9ED" r="3.5" cx="-98.67986798679868" cy="0"/>
        <circle fill="#B0E9ED" r="3.5" cx="161.3861386138614" cy="0"/>
    </g>
    <g id="esc13" transform="translate(440,350)" class="RoyPaezRib">
        <polyline stroke="#B788A4" fill="none" stroke-width="2" points="0,-16.693418940609952 -79.93579454253612,0 0,4.49438202247191 300.8025682182986,0 0,-16.693418940609952"/>
        <polyline stroke="none" fill="#B788A4" opacity=".4" points="0,-16.693418940609952 -79.93579454253612,0 0,4.49438202247191 300.8025682182986,0 0,-16.693418940609952"/>
        <circle fill="#B788A4" r="3.5" cy="-16.693418940609952" cx="0"/>
        <circle fill="#B788A4" r="3.5" cy="4.49438202247191" cx="0"/>
        <circle fill="#B788A4" r="3.5" cx="-79.93579454253612" cy="0"/>
        <circle fill="#B788A4" r="3.5" cx="300.8025682182986" cy="0"/>
    </g>
    <g id="esc14" transform="translate(440,350)" class="JLpzUlh">
        <polyline stroke="#889BB7" fill="none" stroke-width="2" points="0,-125.45982575024202 -84.64666021297192,0 0,89.52565343659245 174.40464666021296,0 0,-125.45982575024202"/>
        <polyline stroke="none" fill="#889BB7" opacity=".4" points="0,-125.45982575024202 -84.64666021297192,0 0,89.52565343659245 174.40464666021296,0 0,-125.45982575024202"/>
        <circle fill="#889BB7" r="3.5" cy="-125.45982575024202" cx="0"/>
        <circle fill="#889BB7" r="3.5" cy="89.52565343659245" cx="0"/>
        <circle fill="#889BB7" r="3.5" cx="-84.64666021297192" cy="0"/>
        <circle fill="#889BB7" r="3.5" cx="174.40464666021296" cy="0"/>
    </g>
    <g id="esc15" transform="translate(440,350)" class="FerGvzSeav">
        <polyline stroke="#73843A" fill="none" stroke-width="2" points="0,-99.32765575974899 -58.090542357687134,0 0,47.15374271627073 193.81443298969072,0 0,-99.32765575974899"/>
        <polyline stroke="none" fill="#73843A" opacity=".4" points="0,-99.32765575974899 -58.090542357687134,0 0,47.15374271627073 193.81443298969072,0 0,-99.32765575974899"/>
        <circle fill="#73843A" r="3.5" cy="-99.32765575974899" cx="0"/>
        <circle fill="#73843A" r="3.5" cy="47.15374271627073" cx="0"/>
        <circle fill="#73843A" r="3.5" cx="-58.090542357687134" cy="0"/>
        <circle fill="#73843A" r="3.5" cx="193.81443298969072" cy="0"/>
    </g>
    <g id="esc16" transform="translate(440,350)" class="PGmzBarr">
        <polyline stroke="#3d4144" fill="none" stroke-width="2" points="0,-96.12940496822645 -124.5522819179665,0 0,6.239168110918544 173.0791450028885,0 0,-96.12940496822645"/>
        <polyline stroke="none" fill="#3d4144" opacity=".4" points="0,-96.12940496822645 -124.5522819179665,0 0,6.239168110918544 173.0791450028885,0 0,-96.12940496822645"/>
        <circle fill="#3d4144" r="3.5" cy="-96.12940496822645" cx="0"/>
        <circle fill="#3d4144" r="3.5" cy="6.239168110918544" cx="0"/>
        <circle fill="#3d4144" r="3.5" cx="-124.5522819179665" cy="0"/>
        <circle fill="#3d4144" r="3.5" cx="173.0791450028885" cy="0"/>
    </g>
    <g id="esc17" transform="translate(440,350)" class="AfLpzBay">
        <polyline stroke="#6A685A" fill="none" stroke-width="2" points="0,-125.62417871222077 -39.42181340341656,0 0,1.314060446780552 233.63994743758212,0 0,-125.62417871222077"/>
        <polyline stroke="none" fill="#6A685A" opacity=".4" points="0,-125.62417871222077 -39.42181340341656,0 0,1.314060446780552 233.63994743758212,0 0,-125.62417871222077"/>
        <circle fill="#6A685A" r="3.5" cy="-125.62417871222077" cx="0"/>
        <circle fill="#6A685A" r="3.5" cy="1.314060446780552" cx="0"/>
        <circle fill="#6A685A" r="3.5" cx="-39.42181340341656" cy="0"/>
        <circle fill="#6A685A" r="3.5" cx="233.63994743758212" cy="0"/>
    </g>
    <g id="esc18" transform="translate(440,350)" class="JGarGlh">
        <polyline stroke="#2B6273" fill="none" stroke-width="2" points="0,-87.59439050701187 -207.5512405609493,0 0,18.12297734627832 133.33333333333334,0 0,-87.59439050701187"/>
        <polyline stroke="none" fill="#2B6273" opacity=".4" points="0,-87.59439050701187 -207.5512405609493,0 0,18.12297734627832 133.33333333333334,0 0,-87.59439050701187"/>
        <circle fill="#2B6273" r="3.5" cy="-87.59439050701187" cx="0"/>
        <circle fill="#2B6273" r="3.5" cy="18.12297734627832" cx="0"/>
        <circle fill="#2B6273" r="3.5" cx="-207.5512405609493" cy="0"/>
        <circle fill="#2B6273" r="3.5" cx="133.33333333333334" cy="0"/>
    </g>
    <g id="esc19" transform="translate(440,350)" class="EstFai">
        <polyline stroke="#73473C" fill="none" stroke-width="2" points="0,-146.25429553264604 -54.15807560137457,0 0,0 199.58762886597938,0 0,-146.25429553264604"/>
        <polyline stroke="none" fill="#73473C" opacity=".4" points="0,-146.25429553264604 -54.15807560137457,0 0,0 199.58762886597938,0 0,-146.25429553264604"/>
        <circle fill="#73473C" r="3.5" cy="-146.25429553264604" cx="0"/>
        <circle fill="#73473C" r="3.5" cy="0" cx="0"/>
        <circle fill="#73473C" r="3.5" cx="-54.15807560137457" cy="0"/>
        <circle fill="#73473C" r="3.5" cx="199.58762886597938" cy="0"/>
    </g>
    <g id="esc20" transform="translate(440,350)" class="JVqzTal">
        <polyline stroke="#490301" fill="none" stroke-width="2" points="0,-114.34262948207171 -139.8406374501992,0 0,30.677290836653388 174.9003984063745,0 0,-114.34262948207171"/>
        <polyline stroke="none" fill="#490301" opacity=".4" points="0,-114.34262948207171 -139.8406374501992,0 0,30.677290836653388 174.9003984063745,0 0,-114.34262948207171"/>
        <circle fill="#490301" r="3.5" cy="-114.34262948207171" cx="0"/>
        <circle fill="#490301" r="3.5" cy="30.677290836653388" cx="0"/>
        <circle fill="#490301" r="3.5" cx="-139.8406374501992" cy="0"/>
        <circle fill="#490301" r="3.5" cx="174.9003984063745" cy="0"/>
    </g>
    <g id="esc21" transform="translate(440,350)" class="PayGmzCha">
        <polyline stroke="#f2cf95" fill="none" stroke-width="2" points="0,-142.74193548387098 -112.09677419354838,0 0,54.83870967741935 107.25806451612904,0 0,-142.74193548387098"/>
        <polyline stroke="none" fill="#f2cf95" opacity=".4" points="0,-142.74193548387098 -112.09677419354838,0 0,54.83870967741935 107.25806451612904,0 0,-142.74193548387098"/>
        <circle fill="#f2cf95" r="3.5" cy="-142.74193548387098" cx="0"/>
        <circle fill="#f2cf95" r="3.5" cy="54.83870967741935" cx="0"/>
        <circle fill="#f2cf95" r="3.5" cx="-112.09677419354838" cy="0"/>
        <circle fill="#f2cf95" r="3.5" cx="107.25806451612904" cy="0"/>
    </g>
    <g id="esc22" transform="translate(440,350)" class="FerVelho">
        <polyline stroke="#1B0CA2" fill="none" stroke-width="2" points="0,-96.63666508763619 -111.98484130743724,0 0,46.423495973472285 177.73567029843676,0 0,-96.63666508763619"/>
        <polyline stroke="none" fill="#1B0CA2" opacity=".4" points="0,-96.63666508763619 -111.98484130743724,0 0,46.423495973472285 177.73567029843676,0 0,-96.63666508763619"/>
        <circle fill="#1B0CA2" r="3.5" cy="-96.63666508763619" cx="0"/>
        <circle fill="#1B0CA2" r="3.5" cy="46.423495973472285" cx="0"/>
        <circle fill="#1B0CA2" r="3.5" cx="-111.98484130743724" cy="0"/>
        <circle fill="#1B0CA2" r="3.5" cx="177.73567029843676" cy="0"/>
    </g>
    <g id="esc23" transform="translate(440,350)" class="BonGen">
        <polyline stroke="#630C03" fill="none" stroke-width="2" points="0,-84.84848484848484 -73.33333333333333,0 0,21.21212121212121 220.6060606060606,0 0,-84.84848484848484"/>
        <polyline stroke="none" fill="#630C03" opacity=".4" points="0,-84.84848484848484 -73.33333333333333,0 0,21.21212121212121 220.6060606060606,0 0,-84.84848484848484"/>
        <circle fill="#630C03" r="3.5" cy="-84.84848484848484" cx="0"/>
        <circle fill="#630C03" r="3.5" cy="21.21212121212121" cx="0"/>
        <circle fill="#630C03" r="3.5" cx="-73.33333333333333" cy="0"/>
        <circle fill="#630C03" r="3.5" cx="220.6060606060606" cy="0"/>
    </g>
    <g id="esc24" transform="translate(440,350)" class="PEaSol">
        <polyline stroke="#025256" fill="none" stroke-width="2" points="0,-30.116959064327485 -114.91228070175438,0 0,1.1695906432748537 253.80116959064327,0 0,-30.116959064327485"/>
        <polyline stroke="none" fill="#025256" opacity=".4" points="0,-30.116959064327485 -114.91228070175438,0 0,1.1695906432748537 253.80116959064327,0 0,-30.116959064327485"/>
        <circle fill="#025256" r="3.5" cy="-30.116959064327485" cx="0"/>
        <circle fill="#025256" r="3.5" cy="1.1695906432748537" cx="0"/>
        <circle fill="#025256" r="3.5" cx="-114.91228070175438" cy="0"/>
        <circle fill="#025256" r="3.5" cx="253.80116959064327" cy="0"/>
    </g>
    <g id="esc25" transform="translate(440,350)" class="FerPad">
        <polyline stroke="#E25C05" fill="none" stroke-width="2" points="0,-128.97196261682242 -94.47748513169074,0 0,82.24299065420561 94.30756159728122,0 0,-128.97196261682242"/>
        <polyline stroke="none" fill="#E25C05" opacity=".4" points="0,-128.97196261682242 -94.47748513169074,0 0,82.24299065420561 94.30756159728122,0 0,-128.97196261682242"/>
        <circle fill="#E25C05" r="3.5" cy="-128.97196261682242" cx="0"/>
        <circle fill="#E25C05" r="3.5" cy="82.24299065420561" cx="0"/>
        <circle fill="#E25C05" r="3.5" cx="-94.47748513169074" cy="0"/>
        <circle fill="#E25C05" r="3.5" cx="94.30756159728122" cy="0"/>
    </g>
    <g id="esc26" transform="translate(440,350)" class="PPon">
        <polyline stroke="#11894A" fill="none" stroke-width="2" points="0,-162.47960848287113 -81.56606851549755,0 0,97.55301794453507 58.401305057096245,0 0,-162.47960848287113"/>
        <polyline stroke="none" fill="#11894A" opacity=".4" points="0,-162.47960848287113 -81.56606851549755,0 0,97.55301794453507 58.401305057096245,0 0,-162.47960848287113"/>
        <circle fill="#11894A" r="3.5" cy="-162.47960848287113" cx="0"/>
        <circle fill="#11894A" r="3.5" cy="97.55301794453507" cx="0"/>
        <circle fill="#11894A" r="3.5" cx="-81.56606851549755" cy="0"/>
        <circle fill="#11894A" r="3.5" cx="58.401305057096245" cy="0"/>
    </g>
    <g id="esc27" transform="translate(440,350)" class="VaRdzCal">
        <polyline stroke="#009CA2" fill="none" stroke-width="2" points="0,-149.81458590852904 -50.92707045735476,0 0,39.060568603213845 160.19777503090233,0 0,-149.81458590852904"/>
        <polyline stroke="none" fill="#009CA2" opacity=".4" points="0,-149.81458590852904 -50.92707045735476,0 0,39.060568603213845 160.19777503090233,0 0,-149.81458590852904"/>
        <circle fill="#009CA2" r="3.5" cy="-149.81458590852904" cx="0"/>
        <circle fill="#009CA2" r="3.5" cy="39.060568603213845" cx="0"/>
        <circle fill="#009CA2" r="3.5" cx="-50.92707045735476" cy="0"/>
        <circle fill="#009CA2" r="3.5" cx="160.19777503090233" cy="0"/>
    </g>
    <g id="esc28" transform="translate(440,350)" class="RoyFdz">
        <polyline stroke="#895F11" fill="none" stroke-width="2" points="0,-96.56992084432717 -41.68865435356201,0 0,31.398416886543536 232.9815303430079,0 0,-96.56992084432717"/>
        <polyline stroke="none" fill="#895F11" opacity=".4" points="0,-96.56992084432717 -41.68865435356201,0 0,31.398416886543536 232.9815303430079,0 0,-96.56992084432717"/>
        <circle fill="#895F11" r="3.5" cy="-96.56992084432717" cx="0"/>
        <circle fill="#895F11" r="3.5" cy="31.398416886543536" cx="0"/>
        <circle fill="#895F11" r="3.5" cx="-41.68865435356201" cy="0"/>
        <circle fill="#895F11" r="3.5" cx="232.9815303430079" cy="0"/>
    </g>
</svg>